<?xml version="1.0" encoding="UTF-8"?><svg id="Layer_2" xmlns="http://www.w3.org/2000/svg" viewBox="0 0 422.44 421.65"><defs><style>.cls-1{fill:#b3b3b3;}.cls-1,.cls-2,.cls-3{stroke-width:0px;}.cls-2{fill:#666;}.cls-3{fill:#999;}</style></defs><g id="Layer_1-2"><path class="cls-3" d="M211.51,421.65c-66.27,0-127.44-30.21-167.84-82.87C3.37,286.24-9.85,219.22,7.41,154.93,30.28,69.69,110.56,4.66,198.31.28c3.76-.19,7.57-.28,11.31-.28,73.69,0,141.05,37.1,180.21,99.25,18.45,29.28,29.52,62.73,32.04,96.75,2.69,36.46-4.13,72.06-20.3,105.83-32.53,67.98-101.88,114.85-176.66,119.41-4.46.27-8.97.41-13.4.41h0ZM177.32,37.93c-17.53,3.73-39.45,12.22-52.97,19.83-46.15,25.96-77.94,70.99-87.23,123.55-9.32,52.8,5.22,106.28,39.92,146.74,33.79,39.41,82.93,62.01,134.81,62.01,56.18,0,107.93-25.63,141.99-70.31,39.21-51.44,47.3-117.53,21.65-176.79-12.31-28.44-31.69-53.27-56.06-71.82-21.32-16.22-46.22-27.34-72.82-32.6l79.66,170.41.17.51c11.9,34.7,6.58,72.21-14.6,102.92-21.88,31.73-57.73,51.42-95.9,52.67-1.35.04-2.73.07-4.08.07-40.69,0-78.38-20.34-100.81-54.42-21.99-33.4-25.56-73.54-9.82-110.14l.13-.29c6.9-14.72,13.82-29.43,20.75-44.15,18.21-38.72,36.97-78.6,55.2-118.18ZM126.4,226.02c-8.54,25.04-4.75,50.76,10.68,72.48,17.16,24.15,45.72,38.57,76.38,38.57,1.59,0,3.21-.04,4.8-.12,30-1.45,58.42-18.56,74.15-44.64,13.42-22.24,15.18-47.71,4.85-69.89L212.44,48.89l-86.04,177.12Z"/><path class="cls-1" d="M198.81,10.27C115.01,14.45,38.76,76.65,17.06,157.52c-35.87,133.68,69.42,262.15,207.25,253.74,71.28-4.35,137.45-49.4,168.25-113.75C458.15,160.44,353.1,2.58,198.81,10.27ZM212.42,26.06q46.93,96.02,93.87,192.05c27.61,59.1-23.16,125.71-87.54,128.82-69.34,3.36-124.21-59.81-101.6-124.75q47.64-98.06,95.27-196.13ZM361.79,325.81c-72.49,95.12-214.34,99.73-292.35,8.74C-7.24,245.13,16.83,106.76,119.44,49.04c17.7-9.96,49.91-21.76,69.94-22.95,1.45-.09,2.92.06,4.37,0-27.28,59.6-55.47,119-83.33,178.41-31.64,73.51,26.21,153.14,105.19,150.54,71.59-2.35,125.08-73.21,101.36-142.35q-43.17-92.35-86.34-184.7.14-.96.27-1.91c144.29,14.86,220.34,182.33,130.87,299.72Z"/><path class="cls-2" d="M206,383.73h-36.96V105.01h-97.06v-32.95l133.71.75"/><path class="cls-2" d="M219.05,72.06h137.58v32.95h-100.63v106.41h91.72v32.95h-91.72v139.36h-36.96V72.06Z"/></g></svg>