<?xml version="1.0" encoding="UTF-8"?><svg id="Layer_2" xmlns="http://www.w3.org/2000/svg" viewBox="0 0 439 85.56"><defs><style>.cls-1,.cls-2{stroke-width:0px;}.cls-2{fill:#ce0e2d;}</style></defs><g id="Layer_1-2"><path class="cls-2" d="M0,2.06h12.56c7.76,0,13.82,2.72,13.82,11.01s-6.64,11.25-14.02,11.25h-6.35v13.63H0V2.06ZM12.66,19.04c5.34,0,7.76-1.65,7.76-5.77s-2.42-5.67-7.81-5.67h-6.6v11.45h6.64Z"/><path class="cls-2" d="M32.55,2.06h6.11v35.89h-6.11V2.06Z"/><path class="cls-2" d="M47.2,2.06h12.56c7.76,0,13.82,2.72,13.82,11.01s-6.64,11.25-14.02,11.25h-6.35v13.63h-6.01V2.06ZM59.86,19.04c5.34,0,7.76-1.65,7.76-5.77s-2.42-5.67-7.81-5.67h-6.6v11.45h6.64Z"/><path class="cls-2" d="M79.36,2.06h23.18v5.63h-17.12v8.92h12.56v5.38h-12.56v10.43h18.09v5.53h-24.15V2.06Z"/><path class="cls-2" d="M127.4,12.53h4.21l8.97,25.43h-4.38l-2.05-6.02h-9.62l-2.09,6.02h-4l8.97-25.43ZM132.88,28.16l-3.46-10.27h-.07l-3.52,10.27h7.05Z"/><path class="cls-2" d="M144.32,12.63h4.35l11.98,18.07h.07V12.63h3.97v25.32h-3.9l-12.42-18.44h-.07v18.44h-3.97V12.63Z"/><path class="cls-2" d="M170.44,12.63h7.22c7.94,0,13.14,3.69,13.14,12.56s-5.3,12.76-13.14,12.76h-7.22V12.63ZM178.04,34.12c5.78,0,8.49-2.53,8.49-8.93s-2.74-8.59-8.56-8.59h-3.25v17.52h3.32Z"/><path class="cls-2" d="M208.74,2.06h22.6v5.63h-16.54v9.6h11.98v5.38h-11.98v15.28h-6.06V2.06Z"/><path class="cls-2" d="M271.9,24.86V2.06h6.06v22.26c0,5.48,2.38,8.73,7.91,8.73s7.86-3.15,7.86-8.68V2.06h5.97v22.75c0,8.15-4.61,13.73-13.87,13.73-9.89,0-13.92-5.53-13.92-13.68Z"/><path class="cls-2" d="M307.36,2.06h6.16l16.98,25.61h.1V2.06h5.63v35.89h-5.53l-17.61-26.14h-.1v26.14h-5.63V2.06Z"/><path class="cls-2" d="M344.37,2.06h10.23c11.25,0,18.62,5.24,18.62,17.8s-7.52,18.09-18.62,18.09h-10.23V2.06ZM355.13,32.52c8.2,0,12.03-3.59,12.03-12.66s-3.88-12.17-12.13-12.17h-4.61v24.83h4.7Z"/><path class="cls-2" d="M379.68,2.06h12.85c8.53,0,13.48,3.44,13.48,10.77,0,5.72-2.96,8.97-7.96,10.19l8.44,14.94h-6.5l-8.05-14.16h-6.31v14.16h-5.97V2.06ZM392.29,18.5c5.04,0,7.76-1.26,7.76-5.53s-2.67-5.38-7.81-5.38h-6.6v10.91h6.65Z"/><path class="cls-2" d="M420.62,22.48l-12.22-20.42h6.4l8.97,15.28,8.92-15.28h6.3l-12.27,20.42v15.47h-6.11v-15.47Z"/><path class="cls-2" d="M97.24,66.7c0-12.03,6.74-18.53,15.76-18.53,8.34,0,12.32,4.61,13.92,11.16l-5.77,1.65c-1.36-4.75-3.44-7.18-8.2-7.18-6.06,0-9.6,4.7-9.6,12.85s3.64,13.24,9.7,13.24c4.66,0,7.28-2.33,8.63-7.71l5.77,1.31c-1.75,7.13-6.16,11.93-14.45,11.93-9.21,0-15.76-6.35-15.76-18.72Z"/><path class="cls-2" d="M170.34,48.86h8l9.6,28.47h.1l9.31-28.47h8.15v35.89h-5.87v-26.77h-.1c-.53,2.47-1.31,4.8-2.13,7.32l-6.98,19.45h-5.38l-6.94-19.45c-.87-2.57-1.41-4.12-2.18-7.57h-.1v27.02h-5.48v-35.89Z"/><path class="cls-2" d="M213.66,48.86h12.56c7.76,0,13.82,2.72,13.82,11.01s-6.65,11.25-14.02,11.25h-6.35v13.63h-6.01v-35.89ZM226.31,65.83c5.34,0,7.76-1.65,7.76-5.77s-2.43-5.67-7.81-5.67h-6.6v11.45h6.64Z"/><path class="cls-2" d="M251.78,48.71h5.97l12.71,36.04h-6.21l-2.91-8.54h-13.63l-2.96,8.54h-5.68l12.71-36.04ZM259.54,70.88l-4.9-14.55h-.1l-5,14.55h9.99Z"/><path class="cls-2" d="M275.75,48.86h6.16l16.98,25.61h.1v-25.61h5.63v35.89h-5.53l-17.61-26.14h-.1v26.14h-5.63v-35.89Z"/><path class="cls-2" d="M321.63,69.27l-12.22-20.42h6.4l8.97,15.28,8.92-15.28h6.3l-12.27,20.42v15.47h-6.11v-15.47Z"/><path class="cls-2" d="M231.14,19.2c0-10.61,8.55-19.2,19.11-19.2s19.11,8.61,19.11,19.2-8.55,19.2-19.11,19.2-19.11-8.61-19.11-19.2Z"/><path class="cls-1" d="M235.28,19.46c0-8.43,6.79-15.27,15.19-15.27s15.19,6.84,15.19,15.27-6.79,15.27-15.19,15.27-15.19-6.84-15.19-15.27Z"/><path class="cls-2" d="M148.33,47.16c-10.56,0-19.11,8.59-19.11,19.2s8.55,19.2,19.11,19.2,19.11-8.61,19.11-19.2-8.55-19.2-19.11-19.2ZM148.55,81.9c-8.4,0-15.19-6.84-15.19-15.27s6.79-15.27,15.19-15.27,15.19,6.84,15.19,15.27-6.79,15.27-15.19,15.27Z"/></g></svg>